<svg width="229" height="193" viewBox="0 0 229 193" fill="none" xmlns="http://www.w3.org/2000/svg">
<path d="M114.676 93.1055V57.3281C112.82 57.3281 110.965 56.5859 109.59 55.1055C97.8906 42.5117 84.4062 31.5938 69.5117 22.7891C51.1445 11.9024 30.668 4.21485 8.83203 0.476572C4.59766 -0.242178 0.730469 3.03126 0.730469 7.31642V130.457C0.730469 133.852 3.18359 136.766 6.53906 137.293C46.9961 143.695 82.9375 163.621 109.566 192.289C109.633 192.359 109.695 192.426 109.762 192.496C110.535 193.258 111.844 192.707 111.844 191.637V144.852C111.844 142.375 110.199 140.23 107.824 139.504C98.0977 136.539 91.0117 127.504 91.0117 116.816C91.0117 103.762 101.602 93.1524 114.676 93.1055Z" fill="#0D47A1"/>
<path d="M228.621 7.31642V130.457C228.621 133.852 226.168 136.766 222.812 137.293C182.355 143.695 146.414 163.621 119.781 192.289L119.766 192.313C119.016 193.105 117.688 192.578 117.688 191.488V144.852C117.688 142.367 119.344 140.23 121.73 139.496C131.824 136.41 139.066 126.789 138.484 115.559C137.875 103.703 128.328 93.9883 116.465 93.168C115.863 93.1289 115.266 93.1055 114.676 93.1055V57.3281C116.535 57.3281 118.391 56.5859 119.766 55.1055C131.465 42.5117 144.949 31.5938 159.84 22.7891C178.207 11.9024 198.688 4.21485 220.523 0.476572C224.758 -0.242178 228.621 3.03126 228.621 7.31642Z" fill="#1976D2"/>
</svg>
